<svg version="1.0" xmlns="http://www.w3.org/2000/svg" viewBox="0 0 290 278" width="290" height="278">
  <g transform="translate(0,278) scale(0.1,-0.1)" fill="#E8642A" stroke="none">
    <path d="M482 2317 l-272 -272 0 -680 0 -680 268 -268 268 -267 683 0 683 0 225 224 c145 145 222 229 217 237 -4 8 -3 9 4 5 6 -4 29 10 52 30 l40 36 0 152 0 151 -275 0 -275 0 0 -35 c0 -32 -12 -47 -108 -143 l-107 -107 -455 0 -455 0 -108 108 -108 108 0 454 -1 453 108 108 109 109 197 0 198 0 -4 -160 c-2 -88 0 -160 4 -160 5 0 10 4 12 10 2 5 133 140 292 299 190 191 286 294 281 302 -5 7 -4 10 2 6 6 -4 70 52 142 123 l132 130 -738 0 -738 0 -273 -273z"/>
    <path d="M1937 1871 c-279 -281 -507 -511 -507 -513 0 -2 153 -1 340 2 l341 5 269 270 270 270 0 140 0 140 -98 98 c-53 53 -100 97 -103 97 -3 0 -234 -229 -512 -509z"/>
  </g>
</svg>
